<svg xmlns="http://www.w3.org/2000/svg" viewBox="0 0 400 100">
  <g fill="#000000">
    <!-- Bird 1 - Flying left -->
    <path d="M50,40 Q45,35 40,40 Q35,35 30,40 L25,45 Q30,42 35,45 Q40,42 45,45 Q50,42 55,45 L50,40 Z"/>

    <!-- Bird 2 - Flying -->
    <path d="M100,30 Q95,25 90,30 Q85,25 80,30 L75,35 Q80,32 85,35 Q90,32 95,35 Q100,32 105,35 L100,30 Z"/>

    <!-- Bird 3 - Higher -->
    <path d="M150,20 Q145,15 140,20 Q135,15 130,20 L125,25 Q130,22 135,25 Q140,22 145,25 Q150,22 155,25 L150,20 Z"/>

    <!-- Bird 4 - Center -->
    <path d="M200,35 Q195,30 190,35 Q185,30 180,35 L175,40 Q180,37 185,40 Q190,37 195,40 Q200,37 205,40 L200,35 Z"/>

    <!-- Bird 5 - Right side -->
    <path d="M250,25 Q245,20 240,25 Q235,20 230,25 L225,30 Q230,27 235,30 Q240,27 245,30 Q250,27 255,30 L250,25 Z"/>

    <!-- Bird 6 - Far right -->
    <path d="M300,45 Q295,40 290,45 Q285,40 280,45 L275,50 Q280,47 285,50 Q290,47 295,50 Q300,47 305,50 L300,45 Z"/>

    <!-- Bird 7 - Small distant -->
    <path d="M350,30 Q347,27 344,30 Q341,27 338,30 L335,33 Q338,31 341,33 Q344,31 347,33 Q350,31 353,33 L350,30 Z"/>
  </g>
</svg>
