<svg xmlns="http://www.w3.org/2000/svg" viewBox="0 0 200 150">
  <g fill="#FFFFFF">
    <!-- Flying bird -->
    <path d="M100,30c-3,0-5,2-6,4c-2-3-5-4-8-4c-4,0-7,2-9,5c-1-2-3-3-5-3c-3,0-5,2-6,5c0,0,0,1,0,1c-2,1-3,3-3,5c0,3,2,5,5,5c1,0,2,0,3-1c0,2,1,4,3,5c2,1,4,1,6,0c2,2,5,3,8,2c1,0,2-1,3-2c1,1,2,2,3,2c3,1,6,0,8-2c2,1,4,1,6,0c2-1,3-3,3-5c1,1,2,1,3,1c3,0,5-2,5-5c0-2-1-4-3-5c0,0,0-1,0-1c-1-3-3-5-6-5c-2,0-4,1-5,3c-2-3-5-5-9-5z"/>
    <!-- Perched bird 1 -->
    <path d="M40,80c-2,0-4,1-5,3c-1-2-3-3-5-3c-3,0-5,2-6,4c0-1-1-2-2-2c-2,0-3,1-4,3c0,0,0,0,0,1c-1,0-2,2-2,3c0,2,1,3,3,3c1,0,1,0,2,0c0,1,1,2,2,3c1,0,3,0,4,0c1,1,3,2,5,1c1,0,1,0,2-1c1,0,1,1,2,1c2,1,4,0,5-1c1,0,3,0,4,0c1-1,2-2,2-3c1,0,1,0,2,0c2,0,3-1,3-3c0-1-1-3-2-3c0-1,0-1,0-1c0-2-2-3-4-3c-1,0-2,1-2,2c-1-2-3-4-6-4z"/>
    <!-- Perched bird 2 -->
    <path d="M160,85c-2,0-3,1-4,2c-1-1-2-2-4-2c-2,0-4,1-5,3c0-1-1-1-2-1c-1,0-2,1-3,2c0,0,0,0,0,0c-1,0-1,1-1,2c0,1,1,2,2,2c0,0,1,0,1,0c0,1,1,1,2,2c1,0,2,0,3,0c1,1,2,1,4,1c0,0,1,0,1,0c1,0,1,0,1,0c1,0,3,0,4-1c1,0,2,0,3,0c1-1,1-1,2-2c0,0,1,0,1,0c1,0,2-1,2-2c0-1,0-2-1-2c0,0,0,0,0,0c-1-1-2-2-3-2c-1,0-1,0-2,1c-1-2-3-3-5-3z"/>
  </g>
</svg>
