<svg xmlns="http://www.w3.org/2000/svg" viewBox="0 0 200 200">
  <rect width="200" height="200" fill="#ecf0f1"/>
  <path fill="#95a5a6" d="M140,70c-5-12-15-22-30-27c-3-1-6-2-9-2c-2-5-5-8-9-10c-6-3-12-5-20-5c-12,0-23,5-30,12
    c-5,5-8,11-9,17c-3,0-6,1-9,2c-8,3-14,9-17,17c-2,5-2,9,0,14c2,6,6,11,12,14c-2,5-2,9,0,14c2,6,6,12,12,15
    c5,3,11,5,17,3c3-1,6-2,9-3c3,6,8,11,14,14c8,3,17,3,24,0c6-3,11-8,14-14c8,3,17,3,24,0c6-3,11-8,14-14
    c2-3,2-8,2-11c0-5-2-9-5-12c5-3,8-8,9-12C149,82,145,76,140,70z M80,50c6,0,11,5,11,11s-5,11-11,11s-11-5-11-11
    S74,50,80,50z"/>
  <text x="100" y="180" font-family="Arial" font-size="16" fill="#7f8c8d" text-anchor="middle">No Image Available</text>
</svg>
